<svg id="Layer_1" data-name="Layer 1" xmlns="http://www.w3.org/2000/svg" xmlns:xlink="http://www.w3.org/1999/xlink" viewBox="0 0 3025.72 1339.1"><defs><style>.cls-1{fill:url(#linear-gradient);}</style><linearGradient id="linear-gradient" x1="442.38" y1="1699.25" x2="3538.48" y2="1699.25" gradientUnits="userSpaceOnUse"><stop offset="0" stop-color="#f0f"/><stop offset="0.04" stop-color="#fc00ff"/><stop offset="0.07" stop-color="#f100ff"/><stop offset="0.11" stop-color="#df00ff"/><stop offset="0.14" stop-color="#c600ff"/><stop offset="0.17" stop-color="#a500ff"/><stop offset="0.2" stop-color="#7e00ff"/><stop offset="0.2" stop-color="#7c00ff"/><stop offset="0.54" stop-color="#00edff"/><stop offset="0.75" stop-color="#00fd21"/><stop offset="0.79" stop-color="#02fd21"/><stop offset="0.81" stop-color="#09fd20"/><stop offset="0.82" stop-color="#14fd1e"/><stop offset="0.83" stop-color="#25fd1c"/><stop offset="0.84" stop-color="#3bfd19"/><stop offset="0.84" stop-color="#57fe16"/><stop offset="0.85" stop-color="#77fe12"/><stop offset="0.85" stop-color="#9dfe0d"/><stop offset="0.86" stop-color="#c8ff07"/><stop offset="0.86" stop-color="#f6ff01"/><stop offset="0.86" stop-color="#ff0"/></linearGradient></defs><path class="cls-1" d="M795.68,985.94a70.8,70.8,0,0,0-8.1-12.15q-5.4-6.75-9-12.15L766.88,949a15,15,0,0,0-3.6-2.7.8.8,0,0,0-.9-.9l-12.6-11.7a2.67,2.67,0,0,0-1.8-.9c-3-2.39-5.71-4.5-8.1-6.3a102.74,102.74,0,0,0-9.9-6.3,63.6,63.6,0,0,0-6.3-3.6,15,15,0,0,0-3.6-2.7l-10.8-5.4a137,137,0,0,0-24.3-9.9,195.84,195.84,0,0,0-25.2-6.3,261.47,261.47,0,0,0-53.1-5.4h-7.2a29.22,29.22,0,0,1-7.2.9,154.76,154.76,0,0,0-23.4,1.8q-41.42,2.7-72,26.1-7.22,6.32-9,12.6a37.71,37.71,0,0,0-1.8,9c0,4.21,1.49,8.41,4.5,12.6.59,1.21,1.19,1.8,1.8,1.8.59.61.9,1.06.9,1.35a6.81,6.81,0,0,0,.45,1.8,4.19,4.19,0,0,1-.45,3.15v17.1q0,26.11-.9,52.2-3.61,93.62-11.7,185.4-.92,16.2-2.7,31.5-1.82,14.41-2.7,28.8-3.61,37.8-9,75.6-2.7,20.71-4.5,41.4-1.81,17.12-4.5,33.3l-3.6,25.2-3.6,28.8v5.4q0,25.21,26.1,37.8,27,11.68,53.1,11.7h6.3l.9-.9.9.9a3.7,3.7,0,0,1,2.7.9c2.39,2.4,6,4.19,10.8,5.4a72.3,72.3,0,0,0,11.7.9,74.48,74.48,0,0,0,16.2-1.8q15.29-2.7,25.2-8.1,13.5-7.2,30.6-18a357.15,357.15,0,0,0,29.7-20.7l27-22.5q12.59-11.68,25.2-24.3a500.1,500.1,0,0,0,56.7-74.7q10.8-18,23-42.75a291.76,291.76,0,0,0,18.45-46.35,7,7,0,0,0,.9-2.7,411.86,411.86,0,0,0,13.5-48.6,360.54,360.54,0,0,0,8.1-56.7q.88-14.38.9-27.9a346.76,346.76,0,0,0-11.7-90.9A256.24,256.24,0,0,0,795.68,985.94Zm-36.9,153q0,64.8-20.7,122.4a441,441,0,0,1-30.6,68.4,340.15,340.15,0,0,1-30.6,45.9c-1.8,2.41-3.91,5.11-6.3,8.1a36.36,36.36,0,0,1-4.5,5.4l-11.7,13.5-37.8,36a10.32,10.32,0,0,1-2.7,1.8.8.8,0,0,1-.9.9,77.7,77.7,0,0,1-7.2,5.85q-5.4,4.05-10.35,8.1a48.59,48.59,0,0,1-6.75,5v-15.3a2150.64,2150.64,0,0,1,13.5-241.2q6.29-63,14.4-122.4l7.2-59.4q1.79-11.69,2.7-24.3,2.7-18,4.5-36a38.52,38.52,0,0,1,9,1.35,45.28,45.28,0,0,1,9,3.15,3.74,3.74,0,0,1,2.7.9,143.55,143.55,0,0,1,31.5,14q16.2,9.45,26.1,21.15a2.52,2.52,0,0,0,1.8.9l1.8,1.8a151.16,151.16,0,0,1,10.8,14.4,148.86,148.86,0,0,1,18,31.5q15.29,36.91,17.1,82.8Zm949.47,391.5q31.49-5.4,44.1-24.3c1.19-1.8,3.89-3.89,8.1-6.3a121,121,0,0,0,16.2-12.6l1.8-1.8a35.17,35.17,0,0,0,5.4-4.5q27-27,54-72t45.9-79.2q7.18-12.59,13.5-26.1c1.8-3.6,3.29-6.89,4.5-9.9l18-37.8c.59.61,1.19,2.25,1.8,5s1.19,5.71,1.8,9,1.19,6.46,1.8,9.45a25.44,25.44,0,0,1,.9,5.4q8.1,43.2,29.7,92.25t69.3,61.65a144.19,144.19,0,0,0,16.2.9q25.18,0,44.1-12.6,26.08-18,38.7-34.2,30.59-36,57.15-88.65t42.75-97.65q19.78-52.18,36-107.1a37.39,37.39,0,0,0,1.8-4.5q7.18-25.18,11.7-47.7t4.5-35.1a102.39,102.39,0,0,0-4.5-30.6q-5.4-13.5-16.2-19.8-17.11-9.89-29.7-9.9a26.82,26.82,0,0,0-13.5,3.6q-16.2,9-16.2,26.1t-1.35,22.5a113.74,113.74,0,0,0-2.25,11.7,9.91,9.91,0,0,0-.9,4.5q-11.71,69.31-46.35,162t-74.25,151.2a109.18,109.18,0,0,1-9,12.15q-6.32,7.66-12.6,14.4t-10.8,8.55q-13.5-11.68-25.2-43.65a645.74,645.74,0,0,1-20.25-66.15q-8.57-34.19-12.15-52.2c-.61-4.19-1.21-9-1.8-14.4q-3.62-18.9-8.1-40t-10.8-33.75a34,34,0,0,0-6.3-8.1q-4.51-4.48-6.3-6.3a31.69,31.69,0,0,0-9-4.5,38.45,38.45,0,0,0-9-.9h-6.3q-13.5,0-23,5.85a53.62,53.62,0,0,0-14.85,13,139.7,139.7,0,0,0-5.85,14q-3.16,8.57-5.85,16.65a80,80,0,0,0-2.7,9.9q-7.21,19.82-15.3,38.7a1637.65,1637.65,0,0,1-70.2,150.3q-3.62,6.32-12.15,22.05T1758.2,1399q-8.57,14.42-12.15,18-9-117.88-9-234,0-65.68,2.7-131.4v-8.1a208.53,208.53,0,0,0,.45-23.85q-.46-13-3.15-19.35-10.8-15.29-31-19.35t-35.55-4a173.15,173.15,0,0,0-24.3,1.8q-27,4.51-41.4,15.3-9,8.1-9.9,13.05a45.07,45.07,0,0,0-.9,7.65,101.13,101.13,0,0,0,.9,12.6c.59,3,1.19,6.3,1.8,9.9a2836.58,2836.58,0,0,1,16.2,302.4q0,54-1.8,108.9a42.28,42.28,0,0,0-.9,9.9q-.92,11.71-.9,24.3,0,11.71,1.8,18,8.1,19.82,31,26.1t40.05,6.3A133.09,133.09,0,0,0,1708.25,1530.44Zm-637.19-9.9q84.59-6.29,149.4-48.6a271.57,271.57,0,0,0,69.3-61.2q47.7-62.1,50.4-144a295.76,295.76,0,0,0-27.45-124.65q-27.46-59.83-65.25-104.85a207.57,207.57,0,0,0-59.4-54.9,9.39,9.39,0,0,1-3.6-1.8q-.9-.88-1.35-1.35a1.76,1.76,0,0,1-.45-1.35,33,33,0,0,1-1.8-4.5q-10.8-18.9-38.7-18.9H1135a113.49,113.49,0,0,0-36,12.15q-18,9.45-29.7,20.25a16.2,16.2,0,0,0-4.5,4.5,217.65,217.65,0,0,0-28.8,28.8l-14.4,17.1q-23.41,26.12-44.1,54-10.8,15.32-20.25,28.35t-19.35,29.25a532.94,532.94,0,0,0-45.9,83.7q-21.6,49.51-23.85,80.55t-2.25,39.15q0,45,24.3,86.4,29.7,44.11,74.25,63a238.34,238.34,0,0,0,94.05,18.9Zm-86.4-168.3a60.69,60.69,0,0,1,.9-9.9q6.29-58.48,49-123.75t83.25-109.35l33.3-37.8,15.3,20.7a374.15,374.15,0,0,1,47.25,82.35q17.55,42.77,17.55,80.55a171.66,171.66,0,0,1-1.8,24.3q-5.4,29.7-19.8,52.2-49.5,70.2-144,77.4h-3.6q-33.3,0-56.7-14.4Q984.65,1377.46,984.66,1352.24ZM3033,1021q-27-58.49-83.7-85.5-26.12-9.88-51.3-9.9a111.23,111.23,0,0,0-19.8,1.8q-34.21,6.31-60.3,26.1a237.67,237.67,0,0,0-61.65,66.6,431.7,431.7,0,0,0-40.95,85.5,58.81,58.81,0,0,0-1.8,14.4q0,19.82,16.2,34.2,23.39,19.82,43.2,23.4t27.9,3.6q20.68,0,34.2-11.7,11.68-12.58,17.1-35.1,4.49-22.49,20.7-53.1,2.7-4.48,8.1-12.15a70.88,70.88,0,0,1,11.7-13q6.28-5.4,10.8-5.4h1.8a25.73,25.73,0,0,1,4.05,2.7q2.24,1.82,4.5,4t3.15,3.15q16.2,22.52,24.75,58.95t8.55,66.15v11.7a56.63,56.63,0,0,1-8.55,2.7c-4.5,1.21-9.16,2.41-14,3.6q-6.31,1.82-9.9,2.7-25.21,8.1-45.9,16.65t-44.1,20.25a272.93,272.93,0,0,0-80.1,56.7l-15.3,16.2q-36,43.2-36,85.5a110.65,110.65,0,0,0,4.5,31.5q18,59.4,108.9,72.9a259.26,259.26,0,0,0,30.6,1.8,301.41,301.41,0,0,0,65.7-7.2,15.06,15.06,0,0,1,4.5-.9h1.8a7.45,7.45,0,0,1,4,.9,23.79,23.79,0,0,1,3.15,2.7c1.19,1.8,3.74,4.21,7.65,7.2s10.35,6.61,19.35,10.8q16.2,6.29,26.55,6.75t12.15.45a58.34,58.34,0,0,0,30.6-8.1q12.59-8.1,17.55-20.25a133.47,133.47,0,0,0,7.65-29.25,55.52,55.52,0,0,1,.9-9q15.29-72,22.05-134.1t6.75-105.3q0-34.19-2.7-67.5Q3061.81,1080.46,3033,1021Zm-92.7,291.6q-5.4,27-12.15,54t-11.25,41.4q-1.82,6.32-2.7,10.8a42.67,42.67,0,0,1-1.8,6.75,4.11,4.11,0,0,1-3.15,2.7l-6.75,1.35h-6.3q-18.9,2.7-38.7,3.6a260.7,260.7,0,0,1-36.9-2.7q-18.9-2.7-33.3-9.9-7.21-4.48-9.9-9a16.08,16.08,0,0,1-2.7-8.1,28.42,28.42,0,0,1,2.7-10.8,99.4,99.4,0,0,1,15.3-26.1q17.09-20.69,43.65-39.15a389.51,389.51,0,0,1,52.65-31,22,22,0,0,0,5.4-2.7q12.59-5.4,27.45-12.15t23.85-10.35Q2945.72,1285.65,2940.32,1312.64Zm534.58,97.2a100.74,100.74,0,0,0-7.2-27.9q-9.91-24.3-28.35-39.15t-36.45-14.85a59.55,59.55,0,0,0-14.4,1.8,136.78,136.78,0,0,0-27.9,18,112,112,0,0,1-13.5,9.9,125.81,125.81,0,0,0-12.15,7.65q-8.57,5.87-17.1,10.8t-13,5.85a147.09,147.09,0,0,1-.9-18q0-25.18,4.5-68.4,6.29-61.18,11.7-109.8,2.7-22.48,3.6-34.2,30.59-3.58,63-5.4l23.4-1.8a38.33,38.33,0,0,1,9-.9q9-.89,17.55-1.8a40.84,40.84,0,0,0,13.95-3.6q13.5-11.68,14-33.75t-10.35-36.45q-6.32-8.1-11.7-8.55c-3.6-.29-6.3-.45-8.1-.45a134.39,134.39,0,0,0-14.4.9h-.9q-8.1.91-25.2,2.7-18.9,2.7-36.9,4.5t-22.5,1.8q3.59-33.29,8.1-67.5,3.58-26.09,6.3-51.3v-3.6q0-31.49-29.7-45a109,109,0,0,0-45.9-9.9,132.27,132.27,0,0,0-21.6,1.8q-35.1,5.4-46.8,31.5a87.61,87.61,0,0,0-1.35,11.7c-.31,4.81-.45,9.61-.45,14.4v6.3q-.92,64.8-4.5,130.5-5.4,1.81-16.65,2.25t-22,1.35a78.58,78.58,0,0,0-12.6.9q-11.72.91-17.55,7.65t-8.55,17.55v.9a.8.8,0,0,0-.9.9v13.5l.9,1.8v1.8a31.75,31.75,0,0,0,1.8,4.5q5.4,14.41,21.6,18a464.35,464.35,0,0,0,49.5,2.7q-.92,16.2-2.7,39.15t-4.5,46.35q-1.82,23.41-3.6,40.5-.91,10.8-1.8,22.5a455.18,455.18,0,0,0-3.6,56.7,415.73,415.73,0,0,0,2.7,47.7q12.58,63.92,47.7,83.7t66.6,19.8a182.71,182.71,0,0,0,45.9-6.3q52.18-16.2,94.5-40.5a56.5,56.5,0,0,0,6.3-3.6,98.05,98.05,0,0,0,18-11.25q7.18-5.84,11.7-17.55a56,56,0,0,0,4.5-21.6ZM2628,1451.24a270.32,270.32,0,0,0,10.8-55.8,45.19,45.19,0,0,1,.9-9q9-63.89,9.45-104.85t.45-47.25q0-68.38-17.1-122.4-18-51.3-42.3-62.1t-36.9-10.8q-26.11,0-55.8,19.8-20.72,16.2-31.5,30.6l-7.2,7.2q.89-9,3.15-27.9t4.95-37.8q2.7-16.2,3.6-25.2l1.8-12.6a105.39,105.39,0,0,0,2.7-21.6,43.54,43.54,0,0,0-1.8-13.5q-2.7-13.5-24.3-23.4-18-8.1-33.3-9t-19.8-.9a113.32,113.32,0,0,0-36,5.4q-20.72,8.1-22.5,27-.91,15.32-.9,32.4v18.9a3506.37,3506.37,0,0,1-37.8,422.1c-.61,4.81-1.21,9.9-1.8,15.3a196.34,196.34,0,0,0-4.5,30.6q.89,26.11,26.55,37.8t50.85,11.7a66.7,66.7,0,0,0,10.8-.9q32.4-1.79,45.9-21.6a31.37,31.37,0,0,0,5-14.85c.29-5.09.45-9.45.45-13l-.9-9.9V1435q0-63.88,4.5-126.9.89-7.19,6.3-22.5t11.7-30.6q6.29-15.29,9-22.5a500.34,500.34,0,0,1,36-66.6,300.58,300.58,0,0,1,23-30.15q14.85-17.55,29.25-21.15l1.8,3.6a36,36,0,0,1,4.5,8.1q15.29,42.32,15.3,103.5,0,12.62-.9,25.2-2.7,77.42-10.8,128.7a97,97,0,0,1-2.7,12.6,251,251,0,0,0-3.6,41.4v13.5q9,38.71,22.5,38.7h12.6Q2612.72,1489.94,2628,1451.24ZM1587,1744.55q-17.1-23.4-45-27.9h-5.4q-30.6,0-49.5,18.9-20.71,20.71-28.8,35.1c-1.8,3.6-3.3,5.71-4.5,6.3v-4.5q-2.7-46.79-15.75-101.25t-53.55-78.75a80.05,80.05,0,0,0-30.6-6.3,66.34,66.34,0,0,0-36,10.8q-23.42,16.2-41.85,43.65a340.64,340.64,0,0,0-30.15,54.45q-12.62,29.7-24.3,61.2-6.3,17.1-11.7,36-4.51,13.5-9,27.9a169.59,169.59,0,0,1,3.6-28.8,66.41,66.41,0,0,0,2.7-17.1,30.15,30.15,0,0,0-.9-7.2q-1.82-9.9-17.1-18-27.9-12.6-61.2-12.6-9.91,0-20.7.9-22.5,2.7-33.3,14.4-3.6,5.4-3.6,15.75v52.65q0,35.1-1.8,70.2a1946.22,1946.22,0,0,1-25.2,210.6,3.68,3.68,0,0,1-.9,2.7,39.6,39.6,0,0,1-.9,7.2,121.93,121.93,0,0,0-2.25,15.75c-.31,4.5-.45,7.65-.45,9.45a37.81,37.81,0,0,0,.9,9q6.29,14.4,24.75,22a131.12,131.12,0,0,0,39.15,9.45,146.59,146.59,0,0,0,16.2.9,128.86,128.86,0,0,0,27-2.7,75.86,75.86,0,0,0,12.15-4.95,29.93,29.93,0,0,0,6.75-5,13.81,13.81,0,0,0,3.6-2.7q15.3-11.68,22.95-31.5a266,266,0,0,0,12.15-41.4l1.8-7.2a2574.59,2574.59,0,0,1,81-293.4,580.41,580.41,0,0,1,45-98.1c1.8-2.39,4.35-5.85,7.65-10.35s5.85-8,7.65-10.35a10.37,10.37,0,0,1,2.7-1.8l3.6-3.6q8.1,11.7,13.5,38.25t7.2,44.55q2.7,36.91,2.7,73.8a959.29,959.29,0,0,1-8.1,124.2,332.48,332.48,0,0,0-1.8,35.1V1993q0,26.11,10.8,44.1,6.29,9.92,11.25,11.7a24.11,24.11,0,0,0,7.65,1.8,15.88,15.88,0,0,0,7.2-1.8,47,47,0,0,0,10.8-6.3,43,43,0,0,1,4.5-2.7,36.1,36.1,0,0,0,10.8-9.45,106.9,106.9,0,0,0,8.1-12.15q4.5-9,9.9-26.1t9.9-33.3q3.59-11.68,6.3-19.8a729.55,729.55,0,0,1,27-77.4q3.59-8.1,10.8-22.5t14.85-27.45q7.63-13,14-16.65,18,47.71,18,108.9,0,10.8-.9,21.6-4.52,74.71-15.3,135-.9,7.22-2.7,15.3a166,166,0,0,0-4.5,38.7v10.8q6.29,37.8,18.9,38.7l12.6.9q24.3,0,40.5-37.8a258,258,0,0,0,11.7-50.4l1.8-10.8q10.8-63,11.7-104.85t.9-52.65q0-59.4-12.6-111.6A149.13,149.13,0,0,0,1587,1744.55Zm911.68-80.1q-16.2-45-45-66.6-21.6-13.5-42.3-13.5a64.74,64.74,0,0,0-23.4,4.5q-31.52,12.62-52.2,43.2a30.12,30.12,0,0,1-3.6,4.5,13.93,13.93,0,0,1-2.7,3.6q-5.4,8.1-9.9,16.2l-.9.9q-16.2,27.9-31.5,65.7t-25.2,70.2c-1.8,7.2-3,10.8-3.6,10.8v-2.7q1.8-8.1,1.8-24.3,0-36.9-21.6-45a76.89,76.89,0,0,0-24.3-3.6q-25.2,0-57.6,12.6-50.41,20.71-96.3,45-10.8,6.3-20.7,11.7-8.1-65.69-33.3-117.9-27-58.5-83.7-85.5-25.2-9.9-49.5-9.9a131.18,131.18,0,0,0-21.6,1.8q-34.21,6.3-60.3,26.1a237.68,237.68,0,0,0-61.65,66.6,431.7,431.7,0,0,0-41,85.5,58.75,58.75,0,0,0-1.8,14.4q0,18.9,16.2,34.2,23.4,19.8,43.2,23.4t27.9,3.6q20.7,0,34.2-11.7,11.68-12.6,17.1-35.1,4.5-22.49,20.7-53.1,2.7-4.5,8.1-12.15a71.25,71.25,0,0,1,11.7-13.05q6.29-5.4,10.8-5.4h1.8a23.6,23.6,0,0,1,4.05,2.7c1.49,1.21,3,2.56,4.5,4s2.55,2.56,3.15,3.15q15.3,20.72,23.85,55.8a292.06,292.06,0,0,1,8.55,69.3q-47.72,13.5-104.4,45t-97.2,69.3l-15.3,16.2q-36,43.2-36,85.5a110.7,110.7,0,0,0,4.5,31.5q18,58.52,108.9,72.9,12.6.9,26.1.9a347.8,347.8,0,0,0,70.2-7.2,18.93,18.93,0,0,1,6.75-.45,10.51,10.51,0,0,1,3.6,1.35,22.37,22.37,0,0,1,3.15,2.7c1.2,1.8,3.74,4.2,7.65,7.2s10.35,6.3,19.35,9.9q16.2,7.18,26.55,7.65c6.89.29,10.94.45,12.15.45a58.34,58.34,0,0,0,30.6-8.1q12.6-8.1,17.55-20.25a133.62,133.62,0,0,0,7.65-29.25,45.86,45.86,0,0,1,.9-9q23.4-113.4,27.9-235.8l81.9-37.8c0,4.2-.31,9.6-.9,16.2s-1.21,13.2-1.8,19.8q-.9,15.31-1.8,24.3-8.1,102.6-24.3,198a117.88,117.88,0,0,0-2.7,14.4,23.68,23.68,0,0,1-.9,7.2,86.53,86.53,0,0,0-1.8,17.1q0,7.21,6.3,14.4,10.8,11.7,30.15,18a152.89,152.89,0,0,0,41,7.2h2.7q45.9,0,63.9-29.7,17.08-31.5,24.3-71.1,18.9-90.9,50.85-206.55T2388,1686.05q4.5-6.29,11.25-14.4t12.15-10.8q22.48,29.7,30.15,88.2t8.55,92.7q.89,18.9.9,37.8a1391.85,1391.85,0,0,1-10.8,172.8q-.9,9.92-1.8,20.7a256.21,256.21,0,0,0-4.5,46.8,225.79,225.79,0,0,0,3.6,40.5q8.1,21.6,23.4,21.6a30.15,30.15,0,0,0,7.2-.9q21.6-6.28,33.3-27,13.5-31.5,14.4-70.2.88-9.9,1.8-18,5.4-51.3,8.1-103.5,2.7-34.2,2.7-72t-2.7-78.3Q2520.28,1729.25,2498.68,1664.45Zm-585,306.45q-5.4,26.55-12.15,54t-11.25,41.85c-1.21,4.2-2.11,7.51-2.7,9.9a41.9,41.9,0,0,1-1.8,7.65,4.13,4.13,0,0,1-3.15,2.7q-2.25.47-6.75,1.35h-6.3q-18.9,2.7-38.7,3.6a260.7,260.7,0,0,1-36.9-2.7q-18.9-2.7-33.3-10.8-7.22-3.59-9.9-8.1a16.14,16.14,0,0,1-2.7-8.1,28.34,28.34,0,0,1,2.7-10.8,99.51,99.51,0,0,1,15.3-26.1q17.09-20.7,43.65-39.15a389.51,389.51,0,0,1,52.65-31,22,22,0,0,0,5.4-2.7q12.6-6.29,27.45-13a200.83,200.83,0,0,1,23.85-9.45Q1919.08,1944.35,1913.68,1970.9Zm814.5-438.75a155.67,155.67,0,0,0-47.7-7.2q-9.92,0-20.7.9a73.92,73.92,0,0,0-28.8,9q-8.1,5.4-9,9.9a45.11,45.11,0,0,0-.9,9v10.8q.89,29.7.9,68.4,0,122.4-12.6,333.9v8.1q0,43.2,52.2,45h4.5q51.3,0,54.9-42.3,20.68-261,30.6-347.4l5.4-50.4a9.91,9.91,0,0,1,.9-4.5,66.7,66.7,0,0,0,.9-10.8,36.26,36.26,0,0,0-2.7-14.4Q2751.57,1539.35,2728.18,1532.15ZM2698,2089.7q-20.25-19.35-47.25-19.35a51.28,51.28,0,0,0-9.9.9q-29.7,4.52-47.7,27.9a77.55,77.55,0,0,0-9.9,16.2,75.34,75.34,0,0,0-6.3,30.6,81.51,81.51,0,0,0,.9,11.7q3.59,29.7,23.85,49t48.15,19.35a61.82,61.82,0,0,0,9.9-.9q28.78-4.52,45.9-26.55t17.1-49a66.7,66.7,0,0,0-.9-10.8Q2718.26,2109,2698,2089.7Z" transform="translate(-450.08 -886.94)"/></svg>